<svg enable-background="new 0 2 48 48" viewBox="0 2 48 48" xmlns="http://www.w3.org/2000/svg"><path d="m20.1 18.2.1 2.3-1.6 3-2.5 4.9-.5 4.1 1.8 5.8 4.1 2.3h6.2l5.8-4.4 2.6-6.9-6-7.3-1.7-4.1z" fill="#eceff1"/><path d="m34.3 23.9c-1.6-2.3-2.9-3.7-3.6-6.6s.2-2.1-.4-4.6c-.3-1.3-.8-2.2-1.3-2.9-.6-.7-1.3-1.1-1.7-1.2-.9-.5-3-1.3-5.6.1-2.7 1.4-2.4 4.4-1.9 10.5 0 .4-.1.9-.3 1.3-.4.9-1.1 1.7-1.7 2.4-.7 1-1.4 2-1.9 3.1-1.2 2.3-2.3 5.2-2 6.3.5-.1 6.8 9.5 6.8 9.7.4-.1 2.1-.1 3.6-.1 2.1-.1 3.3-.2 5 .2 0-.3-.1-.6-.1-.9 0-.6.1-1.1.2-1.8.1-.5.2-1 .3-1.6-1 .9-2.8 1.9-4.5 2.2-1.5.3-4-.2-5.2-1.7.1 0 .3 0 .4-.1.3-.1.6-.2.7-.4.3-.5.1-1-.1-1.3s-1.7-1.4-2.4-2-1.1-.9-1.5-1.3c0 0-.6-.6-.8-.8s-.3-.4-.4-.5c-.2-.5-.3-1.1-.2-1.9.1-1.1.5-2 1-3 .2-.4.7-1.2.7-1.2s-1.7 4.2-.8 5.5c0 0 .1-1.3.5-2.6.3-.9.8-2.2 1.4-2.9s2.1-3.3 2.2-4.9c0-.7.1-1.4.1-1.9-.4-.4 6.6-1.4 7-.3.1.4 1.5 4 2.3 5.9.4.9.9 1.7 1.2 2.7.3 1.1.5 2.6.5 4.1 0 .3 0 .8-.1 1.3.2 0 4.1-4.2-.5-7.7 0 0 2.8 1.3 2.9 3.9.1 2.1-.8 3.8-1 4.1.1 0 2.1.9 2.2.9.4 0 1.2-.3 1.2-.3.1-.3.4-1.1.4-1.4.7-2.3-1-6-2.6-8.3z" fill="#263238"/><ellipse cx="21.6" cy="15.3" fill="#eceff1" rx="1.3" ry="2"/><ellipse cx="26.1" cy="15.2" fill="#eceff1" rx="1.7" ry="2.3"/><ellipse cx="21.7" cy="15.5" fill="#212121" rx="1.2" ry=".7" transform="matrix(-.1254 -.9921 .9921 -.1254 8.9754 38.9969)"/><ellipse cx="26" cy="15.6" fill="#212121" rx="1" ry="1.3"/><g fill="#ffc107"><path d="m39.3 37.6c-.4-.2-1.1-.5-1.7-1.4-.3-.5-.2-1.9-.7-2.5-.3-.4-.7-.2-.8-.2-.9.2-3 1.6-4.4 0-.2-.2-.5-.5-1-.5s-.7.2-.9.6-.2.7-.2 1.7c0 .8 0 1.7-.1 2.4-.2 1.7-.5 2.7-.5 3.7 0 1.1.3 1.8.7 2.1.3.3.8.5 1.9.5s1.8-.4 2.5-1.1c.5-.5.9-.7 2.3-1.7 1.1-.7 2.8-1.6 3.1-1.9.2-.2.5-.3.5-.9 0-.5-.4-.7-.7-.8z"/><path d="m19.2 37.9c-1-1.6-1.1-1.9-1.8-2.9-.6-1-1.9-2.9-2.7-2.9-.6 0-.9.3-1.3.7s-.8 1.3-1.5 1.8c-.6.5-2.3.4-2.7 1s.4 1.5.4 3c0 .6-.5 1-.6 1.4-.1.5-.2.8 0 1.2.4.6.9.8 4.3 1.5 1.8.4 3.5 1.4 4.6 1.5s3 0 3-2.7c.1-1.6-.8-2-1.7-3.6z"/><path d="m21.1 19.8c-.6-.4-1.1-.8-1.1-1.4s.4-.8 1-1.3c.1-.1 1.2-1.1 2.3-1.1s2.4.7 2.9.9c.9.2 1.8.4 1.7 1.1-.1 1-.2 1.2-1.2 1.7-.7.2-2 1.3-2.9 1.3-.4 0-1 0-1.4-.1-.3-.1-.8-.6-1.3-1.1z"/></g><path d="m20.9 19c.2.2.5.4.8.5.2.1.5.2.5.2h.9c.5 0 1.2-.2 1.9-.6.7-.3.8-.5 1.3-.7.5-.3 1-.6.8-.7s-.4 0-1.1.4c-.6.4-1.1.6-1.7.9-.3.1-.7.3-1 .3s-.6 0-.9 0-.5-.1-.8-.2c-.2-.1-.3-.2-.4-.2-.2-.1-.6-.5-.8-.6 0 0-.2 0-.1.1.3.3.4.4.6.6z" fill="#634703"/><path d="m23.9 16.8c.1.2.3.2.4.3s.2.1.2.1c.1-.1 0-.3-.1-.3 0-.2-.5-.2-.5-.1z" fill="#634703"/><path d="m22.3 17c0 .1.2.2.2.1.1-.1.2-.2.3-.2.2-.1.1-.2-.2-.2-.2.1-.2.2-.3.3z" fill="#634703"/><path d="m32 34.7v.3c.2.4.7.5 1.1.5.6 0 1.2-.4 1.5-.8 0-.1.1-.2.2-.3.2-.3.3-.5.4-.6 0 0-.1-.1-.1-.2-.1-.2-.4-.4-.8-.5-.3-.1-.8-.2-1-.2-.9-.1-1.4.2-1.7.5 0 0 .1 0 .1.1.2.2.3.4.3.7.1.2 0 .3 0 .5z" fill="#455a64"/></svg>