<svg height="70" width="52.449" xmlns="http://www.w3.org/2000/svg"><path d="m852.97077 1013.9363c-6.55238-.4723-13.02857-2.1216-17.00034-4.3296-2.26232-1.2576-3.98589-2.8032-4.66223-4.1807l-.4024-.8196v-25.70807-25.7081l.31843-.6465c1.42297-2.889 5.96432-5.4935 12.30378-7.0562 2.15195-.5305 5.2586-1.0588 7.79304-1.3252 2.58797-.2721 9.44765-.2307 12.02919.073 6.86123.8061 12.69967 2.6108 16.29768 5.0377 1.38756.9359 2.81137 2.4334 3.29371 3.4642l.41358.8838-.0354 25.6303-.0354 25.63047-.33195.6744c-.18257.3709-.73406 1.1007-1.22553 1.6216-2.99181 3.1715-9.40919 5.5176-17.8267 6.5172-1.71567.2038-9.16916.3686-10.92937.2417zm12.07501-22.02839c-.0252-.0657-1.00472-.93831-2.17671-1.93922s-2.18138-1.86687-2.24309-1.92436c-.0617-.0575.15481-.26106.48117-.45237.32635-.19131.95163-.7235 1.3895-1.18265 1.2805-1.34272 1.88466-3.00131 1.88466-5.17388 0-2.1388-.65162-3.8645-1.95671-5.1818-1.31533-1.3278-2.82554-1.8983-5.02486-1.8983-3.39007 0-5.99368 1.9781-6.82468 5.1851-.28586 1.1031-.28432 3.33211.003 4.31023.74941 2.55136 2.79044 4.40434 5.33062 4.83946.8596.14724.97605.21071 1.5621.85144.34829.38078 1.06301 1.14085 1.58827 1.68904l.95501.9967h2.53878c1.39633 0 2.51816-.0537 2.49296-.11939zm-8.70653-7.10848c-.61119-.31868-.84225-.56599-1.19079-1.27453-.26919-.54724-.31522-.85851-.31824-2.15197-.003-1.3143.0388-1.5983.31987-2.169.45985-.9339 1.09355-1.376 2.07384-1.4469 1.36454-.099 2.15217.5707 2.56498 2.1801.50612 1.97321-.0504 4.07107-1.26471 4.76729-.63707.36527-1.58737.40659-2.18495.095zm-11.25315 3.66269c2.66179-.5048 4.1728-2.0528 4.1728-4.27495 0-1.97137-.97548-3.12004-3.6716-4.32364-1.54338-.689-2.10241-1.1215-2.10241-1.6268 0-.4188.53052-.8777 1.14813-.993.60302-.1126 2.20237.1652 3.14683.5467l.79167.3198v-1.7524-1.7525l-.85923-.1906c-.53103-.1178-1.64689-.1885-2.92137-.1849-1.80528 0-2.15881.044-2.83818.3138-1.98445.7878-2.92613 2.1298-2.91107 4.1485.0141 1.8898 1.01108 3.06864 3.49227 4.12912 1.46399.62572 2.05076 1.10218 2.05076 1.66522 0 1.1965-1.99362 1.34375-4.10437.30315-.57805-.28498-1.09739-.54137-1.1541-.56976-.0567-.0284-.10311.79023-.10311 1.81917 0 1.86239.002 1.87137.33919 1.99974 1.26979.48278 4.07626.69787 5.52379.42335zm30.4308-1.72766v-1.58098h-2.40584-2.40583v-5.43035-5.4303h-2.13089-2.13088v7.0113 7.01131h4.53672 4.53672zm-14.84745-27.70503c4.23447-.2937 7.4086-.8482 10.20178-1.7821 2.78264-.9304 4.42643-2.0562 4.79413-3.2834.14166-.4729.13146-.6523-.0665-1.1708-.88775-2.3245-5.84694-4.1104-13.42493-4.8345-3.24154-.3098-9.13671-.2094-12.22745.2081-4.71604.6372-8.54333 1.8208-10.2451 3.1683-3.44251 2.726.19793 5.7242 8.66397 7.1354 3.67084.6119 8.42674.828 12.30414.559z" fill="#00bcf2" transform="translate(-830.906 -943.981)"/></svg>